<svg width="40" height="48" viewBox="0 0 40 48" fill="none" xmlns="http://www.w3.org/2000/svg">
<path d="M36.4667 47.25L22.8167 30.975C21.7333 32.0083 20.4875 32.8264 19.0792 33.4292C17.6708 34.0319 16.1722 34.3333 14.5833 34.3333C10.6472 34.3333 7.31597 32.708 4.58958 29.4573C1.86319 26.2066 0.5 22.2347 0.5 17.5417C0.5 12.8486 1.86319 8.87674 4.58958 5.62604C7.31597 2.37535 10.6472 0.75 14.5833 0.75C18.5194 0.75 21.8507 2.37535 24.5771 5.62604C27.3035 8.87674 28.6667 12.8486 28.6667 17.5417C28.6667 19.4361 28.4139 21.2229 27.9083 22.9021C27.4028 24.5812 26.7167 26.0667 25.85 27.3583L39.5 43.6333L36.4667 47.25ZM14.5833 29.1667C17.2917 29.1667 19.5938 28.0365 21.4896 25.776C23.3854 23.5156 24.3333 20.7708 24.3333 17.5417C24.3333 14.3125 23.3854 11.5677 21.4896 9.30729C19.5938 7.04687 17.2917 5.91667 14.5833 5.91667C11.875 5.91667 9.57292 7.04687 7.67708 9.30729C5.78125 11.5677 4.83333 14.3125 4.83333 17.5417C4.83333 20.7708 5.78125 23.5156 7.67708 25.776C9.57292 28.0365 11.875 29.1667 14.5833 29.1667Z" fill="white"/>
</svg>
